# xmcd
#
# Track frame offsets:
#	150
#	14106
#	28461
#	39547
#	52063
#	67055
#	78995
#	92663
#	104322
#	116575
#	128530
#	140814
#
# Disc length: 2045 seconds
#
# Revision: 1
# Processed by: cddbd v1.5.2PL0 Copyright (c) Steve Scherf et al.
# Submitted via: audiograbber 1.83.01
#
DISCID=af07fb0c
DTITLE=George Jones - George Jones Hits
DYEAR=1900
DGENRE=Country
TTITLE0=The Grand Tour
TTITLE1=If Drinking Don't kill Me
TTITLE2=Tall Tall Trees
TTITLE3=White Lighytning
TTITLE4=I Always Get Lucky With You
TTITLE5=Once You've Had The Best
TTITLE6=These Days (I Barely Get By)
TTITLE7=Theb Window Up Above
TTITLE8=The Door
TTITLE9=I Should Have Called
TTITLE10=Finally Friday
TTITLE11=I Don't Need Your Rocking Chair
EXTD=
EXTT0=
EXTT1=
EXTT2=
EXTT3=
EXTT4=
EXTT5=
EXTT6=
EXTT7=
EXTT8=
EXTT9=
EXTT10=
EXTT11=
PLAYORDER=
